<mxfile host="app.diagrams.net" agent="Mozilla/5.0 (Macintosh; Intel Mac OS X 10_15_7) AppleWebKit/537.36 (KHTML, like Gecko) Chrome/127.0.0.0 Safari/537.36" version="24.7.6">
  <diagram name="Page-1" id="k9L4QhsoCIznxzurtkYJ">
    <mxGraphModel dx="3370" dy="2448" grid="1" gridSize="10" guides="1" tooltips="1" connect="1" arrows="1" fold="1" page="1" pageScale="1" pageWidth="850" pageHeight="1100" math="0" shadow="0">
      <root>
        <mxCell id="0" />
        <mxCell id="1" parent="0" />
        <mxCell id="cpShksspciK1RbALdtuN-13" value="&lt;font style=&quot;font-size: 30px;&quot;&gt;NSO&#39;s&lt;/font&gt;" style="text;html=1;align=center;verticalAlign=middle;whiteSpace=wrap;rounded=0;" vertex="1" parent="1">
          <mxGeometry x="340" y="-10" width="60" height="30" as="geometry" />
        </mxCell>
        <mxCell id="cpShksspciK1RbALdtuN-17" value="" style="edgeStyle=orthogonalEdgeStyle;rounded=0;orthogonalLoop=1;jettySize=auto;html=1;" edge="1" parent="1" source="cpShksspciK1RbALdtuN-15" target="cpShksspciK1RbALdtuN-16">
          <mxGeometry relative="1" as="geometry" />
        </mxCell>
        <mxCell id="cpShksspciK1RbALdtuN-15" value="Planner Hero team fills basic info and adds NSO to brand." style="rounded=0;whiteSpace=wrap;html=1;" vertex="1" parent="1">
          <mxGeometry x="120" y="70" width="120" height="60" as="geometry" />
        </mxCell>
        <mxCell id="cpShksspciK1RbALdtuN-31" style="edgeStyle=orthogonalEdgeStyle;rounded=0;orthogonalLoop=1;jettySize=auto;html=1;exitX=0.5;exitY=1;exitDx=0;exitDy=0;entryX=0.5;entryY=0;entryDx=0;entryDy=0;" edge="1" parent="1" source="cpShksspciK1RbALdtuN-16" target="cpShksspciK1RbALdtuN-30">
          <mxGeometry relative="1" as="geometry" />
        </mxCell>
        <mxCell id="cpShksspciK1RbALdtuN-16" value="A RFP is created in NSOs domain and they are added." style="whiteSpace=wrap;html=1;rounded=0;" vertex="1" parent="1">
          <mxGeometry x="320" y="70" width="120" height="60" as="geometry" />
        </mxCell>
        <mxCell id="cpShksspciK1RbALdtuN-21" value="They can:&lt;br&gt;&lt;ol&gt;&lt;li&gt;View all RFP&#39;s and Proposals&lt;/li&gt;&lt;li&gt;Get notified on status / event updates to an RFP&lt;/li&gt;&lt;li&gt;&lt;br&gt;&lt;/li&gt;&lt;/ol&gt;" style="rounded=0;whiteSpace=wrap;html=1;align=left;fillColor=#d5e8d4;strokeColor=#82b366;" vertex="1" parent="1">
          <mxGeometry x="280" y="350" width="180" height="190" as="geometry" />
        </mxCell>
        <mxCell id="cpShksspciK1RbALdtuN-33" value="" style="edgeStyle=orthogonalEdgeStyle;rounded=0;orthogonalLoop=1;jettySize=auto;html=1;" edge="1" parent="1" source="cpShksspciK1RbALdtuN-30" target="cpShksspciK1RbALdtuN-32">
          <mxGeometry relative="1" as="geometry" />
        </mxCell>
        <mxCell id="cpShksspciK1RbALdtuN-34" value="No" style="edgeLabel;html=1;align=center;verticalAlign=middle;resizable=0;points=[];" vertex="1" connectable="0" parent="cpShksspciK1RbALdtuN-33">
          <mxGeometry x="-0.34" y="-2" relative="1" as="geometry">
            <mxPoint x="7" y="-2" as="offset" />
          </mxGeometry>
        </mxCell>
        <mxCell id="cpShksspciK1RbALdtuN-36" value="" style="edgeStyle=orthogonalEdgeStyle;rounded=0;orthogonalLoop=1;jettySize=auto;html=1;" edge="1" parent="1" source="cpShksspciK1RbALdtuN-30" target="cpShksspciK1RbALdtuN-35">
          <mxGeometry relative="1" as="geometry" />
        </mxCell>
        <mxCell id="cpShksspciK1RbALdtuN-37" value="Yes" style="edgeLabel;html=1;align=center;verticalAlign=middle;resizable=0;points=[];" vertex="1" connectable="0" parent="cpShksspciK1RbALdtuN-36">
          <mxGeometry x="0.1" y="-1" relative="1" as="geometry">
            <mxPoint as="offset" />
          </mxGeometry>
        </mxCell>
        <mxCell id="cpShksspciK1RbALdtuN-30" value="Does an account exist with NSOs Email?" style="shape=parallelogram;perimeter=parallelogramPerimeter;whiteSpace=wrap;html=1;fixedSize=1;" vertex="1" parent="1">
          <mxGeometry x="310" y="190" width="140" height="60" as="geometry" />
        </mxCell>
        <mxCell id="cpShksspciK1RbALdtuN-39" style="edgeStyle=orthogonalEdgeStyle;rounded=0;orthogonalLoop=1;jettySize=auto;html=1;exitX=0.5;exitY=1;exitDx=0;exitDy=0;entryX=0.75;entryY=0;entryDx=0;entryDy=0;" edge="1" parent="1" source="cpShksspciK1RbALdtuN-32" target="cpShksspciK1RbALdtuN-21">
          <mxGeometry relative="1" as="geometry" />
        </mxCell>
        <mxCell id="cpShksspciK1RbALdtuN-32" value="Create account (user)" style="whiteSpace=wrap;html=1;" vertex="1" parent="1">
          <mxGeometry x="510" y="190" width="120" height="60" as="geometry" />
        </mxCell>
        <mxCell id="cpShksspciK1RbALdtuN-38" style="edgeStyle=orthogonalEdgeStyle;rounded=0;orthogonalLoop=1;jettySize=auto;html=1;exitX=0.5;exitY=1;exitDx=0;exitDy=0;entryX=0.25;entryY=0;entryDx=0;entryDy=0;" edge="1" parent="1" source="cpShksspciK1RbALdtuN-35" target="cpShksspciK1RbALdtuN-21">
          <mxGeometry relative="1" as="geometry" />
        </mxCell>
        <mxCell id="cpShksspciK1RbALdtuN-35" value="Log in" style="whiteSpace=wrap;html=1;" vertex="1" parent="1">
          <mxGeometry x="130" y="190" width="120" height="60" as="geometry" />
        </mxCell>
        <mxCell id="cpShksspciK1RbALdtuN-40" value="&lt;font style=&quot;font-size: 30px;&quot;&gt;Planner&lt;/font&gt;" style="text;html=1;align=center;verticalAlign=middle;whiteSpace=wrap;rounded=0;" vertex="1" parent="1">
          <mxGeometry x="-360" y="-10" width="60" height="30" as="geometry" />
        </mxCell>
        <mxCell id="cpShksspciK1RbALdtuN-43" value="" style="edgeStyle=orthogonalEdgeStyle;rounded=0;orthogonalLoop=1;jettySize=auto;html=1;" edge="1" parent="1" source="cpShksspciK1RbALdtuN-41" target="cpShksspciK1RbALdtuN-42">
          <mxGeometry relative="1" as="geometry" />
        </mxCell>
        <mxCell id="cpShksspciK1RbALdtuN-41" value="User chooses to sign up for Planner Hero" style="rounded=0;whiteSpace=wrap;html=1;" vertex="1" parent="1">
          <mxGeometry x="-510" y="80" width="120" height="60" as="geometry" />
        </mxCell>
        <mxCell id="cpShksspciK1RbALdtuN-47" value="" style="edgeStyle=orthogonalEdgeStyle;rounded=0;orthogonalLoop=1;jettySize=auto;html=1;" edge="1" parent="1" source="cpShksspciK1RbALdtuN-42" target="cpShksspciK1RbALdtuN-46">
          <mxGeometry relative="1" as="geometry" />
        </mxCell>
        <mxCell id="cpShksspciK1RbALdtuN-42" value="Fills out all user details" style="whiteSpace=wrap;html=1;rounded=0;" vertex="1" parent="1">
          <mxGeometry x="-310" y="80" width="120" height="60" as="geometry" />
        </mxCell>
        <mxCell id="cpShksspciK1RbALdtuN-49" value="" style="edgeStyle=orthogonalEdgeStyle;rounded=0;orthogonalLoop=1;jettySize=auto;html=1;" edge="1" parent="1" source="cpShksspciK1RbALdtuN-46" target="cpShksspciK1RbALdtuN-48">
          <mxGeometry relative="1" as="geometry" />
        </mxCell>
        <mxCell id="cpShksspciK1RbALdtuN-50" value="Create new" style="edgeLabel;html=1;align=center;verticalAlign=middle;resizable=0;points=[];" vertex="1" connectable="0" parent="cpShksspciK1RbALdtuN-49">
          <mxGeometry x="0.1778" y="1" relative="1" as="geometry">
            <mxPoint x="13" y="-1" as="offset" />
          </mxGeometry>
        </mxCell>
        <mxCell id="cpShksspciK1RbALdtuN-52" value="" style="edgeStyle=orthogonalEdgeStyle;rounded=0;orthogonalLoop=1;jettySize=auto;html=1;" edge="1" parent="1" source="cpShksspciK1RbALdtuN-46" target="cpShksspciK1RbALdtuN-51">
          <mxGeometry relative="1" as="geometry" />
        </mxCell>
        <mxCell id="cpShksspciK1RbALdtuN-53" value="Join" style="edgeLabel;html=1;align=center;verticalAlign=middle;resizable=0;points=[];" vertex="1" connectable="0" parent="cpShksspciK1RbALdtuN-52">
          <mxGeometry x="-0.1111" relative="1" as="geometry">
            <mxPoint as="offset" />
          </mxGeometry>
        </mxCell>
        <mxCell id="cpShksspciK1RbALdtuN-46" value="Do user intend to create or join organization?" style="shape=parallelogram;perimeter=parallelogramPerimeter;whiteSpace=wrap;html=1;fixedSize=1;rounded=0;" vertex="1" parent="1">
          <mxGeometry x="-310" y="220" width="120" height="60" as="geometry" />
        </mxCell>
        <mxCell id="cpShksspciK1RbALdtuN-99" style="edgeStyle=orthogonalEdgeStyle;rounded=0;orthogonalLoop=1;jettySize=auto;html=1;exitX=0.5;exitY=1;exitDx=0;exitDy=0;entryX=0;entryY=0.5;entryDx=0;entryDy=0;" edge="1" parent="1" source="cpShksspciK1RbALdtuN-48" target="cpShksspciK1RbALdtuN-54">
          <mxGeometry relative="1" as="geometry" />
        </mxCell>
        <mxCell id="cpShksspciK1RbALdtuN-48" value="Go to create Planner Organization page. User is created as Admin" style="whiteSpace=wrap;html=1;rounded=0;" vertex="1" parent="1">
          <mxGeometry x="-520" y="215" width="120" height="70" as="geometry" />
        </mxCell>
        <mxCell id="cpShksspciK1RbALdtuN-55" value="" style="edgeStyle=orthogonalEdgeStyle;rounded=0;orthogonalLoop=1;jettySize=auto;html=1;" edge="1" parent="1" source="cpShksspciK1RbALdtuN-51" target="cpShksspciK1RbALdtuN-54">
          <mxGeometry relative="1" as="geometry" />
        </mxCell>
        <mxCell id="cpShksspciK1RbALdtuN-56" value="Someone invites their Email" style="edgeLabel;html=1;align=center;verticalAlign=middle;resizable=0;points=[];" vertex="1" connectable="0" parent="cpShksspciK1RbALdtuN-55">
          <mxGeometry x="-0.15" y="1" relative="1" as="geometry">
            <mxPoint as="offset" />
          </mxGeometry>
        </mxCell>
        <mxCell id="cpShksspciK1RbALdtuN-51" value="Instruction page for how to have member of Organization invite them to the Organization." style="whiteSpace=wrap;html=1;rounded=0;" vertex="1" parent="1">
          <mxGeometry x="-110" y="210" width="120" height="80" as="geometry" />
        </mxCell>
        <mxCell id="cpShksspciK1RbALdtuN-54" value="User loaded into main dashboard and part of Organization." style="whiteSpace=wrap;html=1;rounded=0;fillColor=#d5e8d4;strokeColor=#82b366;" vertex="1" parent="1">
          <mxGeometry x="-115" y="360" width="130" height="60" as="geometry" />
        </mxCell>
        <mxCell id="cpShksspciK1RbALdtuN-57" value="&lt;font style=&quot;font-size: 30px;&quot;&gt;Hotels&lt;/font&gt;" style="text;html=1;align=center;verticalAlign=middle;whiteSpace=wrap;rounded=0;" vertex="1" parent="1">
          <mxGeometry x="1130" y="-10" width="60" height="30" as="geometry" />
        </mxCell>
        <mxCell id="cpShksspciK1RbALdtuN-64" value="" style="edgeStyle=orthogonalEdgeStyle;rounded=0;orthogonalLoop=1;jettySize=auto;html=1;" edge="1" parent="1" source="cpShksspciK1RbALdtuN-58" target="cpShksspciK1RbALdtuN-63">
          <mxGeometry relative="1" as="geometry" />
        </mxCell>
        <mxCell id="cpShksspciK1RbALdtuN-65" value="" style="edgeStyle=orthogonalEdgeStyle;rounded=0;orthogonalLoop=1;jettySize=auto;html=1;" edge="1" parent="1" source="cpShksspciK1RbALdtuN-58" target="cpShksspciK1RbALdtuN-63">
          <mxGeometry relative="1" as="geometry" />
        </mxCell>
        <mxCell id="cpShksspciK1RbALdtuN-58" value="RFP is filled out and hotel is selected to receive the request." style="rounded=0;whiteSpace=wrap;html=1;" vertex="1" parent="1">
          <mxGeometry x="1090" y="50" width="120" height="60" as="geometry" />
        </mxCell>
        <mxCell id="cpShksspciK1RbALdtuN-66" style="edgeStyle=orthogonalEdgeStyle;rounded=0;orthogonalLoop=1;jettySize=auto;html=1;exitX=0.25;exitY=1;exitDx=0;exitDy=0;entryX=0.5;entryY=0;entryDx=0;entryDy=0;" edge="1" parent="1" source="cpShksspciK1RbALdtuN-63" target="cpShksspciK1RbALdtuN-67">
          <mxGeometry relative="1" as="geometry">
            <mxPoint x="1080" y="300" as="targetPoint" />
          </mxGeometry>
        </mxCell>
        <mxCell id="cpShksspciK1RbALdtuN-72" value="via Email" style="edgeLabel;html=1;align=center;verticalAlign=middle;resizable=0;points=[];" vertex="1" connectable="0" parent="cpShksspciK1RbALdtuN-66">
          <mxGeometry x="0.07" y="2" relative="1" as="geometry">
            <mxPoint y="-4" as="offset" />
          </mxGeometry>
        </mxCell>
        <mxCell id="cpShksspciK1RbALdtuN-70" style="edgeStyle=orthogonalEdgeStyle;rounded=0;orthogonalLoop=1;jettySize=auto;html=1;exitX=0.5;exitY=1;exitDx=0;exitDy=0;entryX=0.5;entryY=0;entryDx=0;entryDy=0;" edge="1" parent="1" source="cpShksspciK1RbALdtuN-63" target="cpShksspciK1RbALdtuN-68">
          <mxGeometry relative="1" as="geometry" />
        </mxCell>
        <mxCell id="cpShksspciK1RbALdtuN-73" value="via Planner Hero" style="edgeLabel;html=1;align=center;verticalAlign=middle;resizable=0;points=[];" vertex="1" connectable="0" parent="cpShksspciK1RbALdtuN-70">
          <mxGeometry x="0.36" relative="1" as="geometry">
            <mxPoint as="offset" />
          </mxGeometry>
        </mxCell>
        <mxCell id="cpShksspciK1RbALdtuN-71" style="edgeStyle=orthogonalEdgeStyle;rounded=0;orthogonalLoop=1;jettySize=auto;html=1;exitX=0.75;exitY=1;exitDx=0;exitDy=0;entryX=0.5;entryY=0;entryDx=0;entryDy=0;" edge="1" parent="1" source="cpShksspciK1RbALdtuN-63" target="cpShksspciK1RbALdtuN-69">
          <mxGeometry relative="1" as="geometry" />
        </mxCell>
        <mxCell id="cpShksspciK1RbALdtuN-74" value="via Meeting broker" style="edgeLabel;html=1;align=center;verticalAlign=middle;resizable=0;points=[];" vertex="1" connectable="0" parent="cpShksspciK1RbALdtuN-71">
          <mxGeometry x="-0.12" y="1" relative="1" as="geometry">
            <mxPoint x="12" y="1" as="offset" />
          </mxGeometry>
        </mxCell>
        <mxCell id="cpShksspciK1RbALdtuN-63" value="RFP gets sent out" style="whiteSpace=wrap;html=1;rounded=0;" vertex="1" parent="1">
          <mxGeometry x="1090" y="140" width="120" height="60" as="geometry" />
        </mxCell>
        <mxCell id="cpShksspciK1RbALdtuN-76" value="" style="edgeStyle=orthogonalEdgeStyle;rounded=0;orthogonalLoop=1;jettySize=auto;html=1;" edge="1" parent="1" source="cpShksspciK1RbALdtuN-67" target="cpShksspciK1RbALdtuN-75">
          <mxGeometry relative="1" as="geometry" />
        </mxCell>
        <mxCell id="cpShksspciK1RbALdtuN-67" value="Link sent to Email listed for hotel" style="rounded=0;whiteSpace=wrap;html=1;" vertex="1" parent="1">
          <mxGeometry x="830" y="300" width="120" height="60" as="geometry" />
        </mxCell>
        <mxCell id="cpShksspciK1RbALdtuN-68" value="&lt;span style=&quot;background-color: initial;&quot;&gt;Show RFP in the hotel (brands/orgs/chains?) Planner Hero dashboard if it exists.&lt;/span&gt;" style="rounded=0;whiteSpace=wrap;html=1;align=center;" vertex="1" parent="1">
          <mxGeometry x="1055" y="300" width="190" height="80" as="geometry" />
        </mxCell>
        <mxCell id="cpShksspciK1RbALdtuN-69" value="???" style="rounded=0;whiteSpace=wrap;html=1;" vertex="1" parent="1">
          <mxGeometry x="1340" y="300" width="120" height="60" as="geometry" />
        </mxCell>
        <mxCell id="cpShksspciK1RbALdtuN-78" value="" style="edgeStyle=orthogonalEdgeStyle;rounded=0;orthogonalLoop=1;jettySize=auto;html=1;" edge="1" parent="1" source="cpShksspciK1RbALdtuN-75" target="cpShksspciK1RbALdtuN-77">
          <mxGeometry relative="1" as="geometry" />
        </mxCell>
        <mxCell id="cpShksspciK1RbALdtuN-82" value="Sign up" style="edgeLabel;html=1;align=center;verticalAlign=middle;resizable=0;points=[];" vertex="1" connectable="0" parent="cpShksspciK1RbALdtuN-78">
          <mxGeometry x="-0.0933" y="2" relative="1" as="geometry">
            <mxPoint as="offset" />
          </mxGeometry>
        </mxCell>
        <mxCell id="cpShksspciK1RbALdtuN-80" style="edgeStyle=orthogonalEdgeStyle;rounded=0;orthogonalLoop=1;jettySize=auto;html=1;exitX=0.5;exitY=1;exitDx=0;exitDy=0;entryX=0.75;entryY=0;entryDx=0;entryDy=0;" edge="1" parent="1" source="cpShksspciK1RbALdtuN-75" target="cpShksspciK1RbALdtuN-83">
          <mxGeometry relative="1" as="geometry">
            <mxPoint x="800" y="580" as="targetPoint" />
          </mxGeometry>
        </mxCell>
        <mxCell id="cpShksspciK1RbALdtuN-81" value="Log In" style="edgeLabel;html=1;align=center;verticalAlign=middle;resizable=0;points=[];" vertex="1" connectable="0" parent="cpShksspciK1RbALdtuN-80">
          <mxGeometry x="0.0235" y="-1" relative="1" as="geometry">
            <mxPoint as="offset" />
          </mxGeometry>
        </mxCell>
        <mxCell id="cpShksspciK1RbALdtuN-75" value="Hotel contact or someone they forwarded it to click on the link" style="whiteSpace=wrap;html=1;rounded=0;" vertex="1" parent="1">
          <mxGeometry x="830" y="440" width="120" height="60" as="geometry" />
        </mxCell>
        <mxCell id="cpShksspciK1RbALdtuN-91" value="" style="edgeStyle=orthogonalEdgeStyle;rounded=0;orthogonalLoop=1;jettySize=auto;html=1;" edge="1" parent="1" source="cpShksspciK1RbALdtuN-77" target="cpShksspciK1RbALdtuN-90">
          <mxGeometry relative="1" as="geometry" />
        </mxCell>
        <mxCell id="cpShksspciK1RbALdtuN-77" value="Sign up as hotelier page" style="whiteSpace=wrap;html=1;rounded=0;" vertex="1" parent="1">
          <mxGeometry x="940" y="580" width="120" height="60" as="geometry" />
        </mxCell>
        <mxCell id="cpShksspciK1RbALdtuN-85" value="" style="edgeStyle=orthogonalEdgeStyle;rounded=0;orthogonalLoop=1;jettySize=auto;html=1;" edge="1" parent="1" source="cpShksspciK1RbALdtuN-83" target="cpShksspciK1RbALdtuN-84">
          <mxGeometry relative="1" as="geometry" />
        </mxCell>
        <mxCell id="cpShksspciK1RbALdtuN-86" value="&lt;font color=&quot;#009900&quot;&gt;Yes&lt;/font&gt;" style="edgeLabel;html=1;align=center;verticalAlign=middle;resizable=0;points=[];" vertex="1" connectable="0" parent="cpShksspciK1RbALdtuN-85">
          <mxGeometry x="-0.18" y="-1" relative="1" as="geometry">
            <mxPoint x="9" as="offset" />
          </mxGeometry>
        </mxCell>
        <mxCell id="cpShksspciK1RbALdtuN-88" style="edgeStyle=orthogonalEdgeStyle;rounded=0;orthogonalLoop=1;jettySize=auto;html=1;exitX=0.5;exitY=1;exitDx=0;exitDy=0;entryX=0.5;entryY=0;entryDx=0;entryDy=0;" edge="1" parent="1" source="cpShksspciK1RbALdtuN-83" target="cpShksspciK1RbALdtuN-87">
          <mxGeometry relative="1" as="geometry" />
        </mxCell>
        <mxCell id="cpShksspciK1RbALdtuN-89" value="&lt;font color=&quot;#ff3333&quot;&gt;No&lt;/font&gt;" style="edgeLabel;html=1;align=center;verticalAlign=middle;resizable=0;points=[];" vertex="1" connectable="0" parent="cpShksspciK1RbALdtuN-88">
          <mxGeometry x="0.0625" y="1" relative="1" as="geometry">
            <mxPoint as="offset" />
          </mxGeometry>
        </mxCell>
        <mxCell id="cpShksspciK1RbALdtuN-83" value="&amp;nbsp; Is part of org RFP was sent to?" style="shape=parallelogram;perimeter=parallelogramPerimeter;whiteSpace=wrap;html=1;fixedSize=1;" vertex="1" parent="1">
          <mxGeometry x="650" y="580" width="120" height="60" as="geometry" />
        </mxCell>
        <mxCell id="cpShksspciK1RbALdtuN-84" value="View RFP details" style="whiteSpace=wrap;html=1;fillColor=#d5e8d4;strokeColor=#82b366;" vertex="1" parent="1">
          <mxGeometry x="730" y="680" width="120" height="60" as="geometry" />
        </mxCell>
        <mxCell id="cpShksspciK1RbALdtuN-98" value="" style="edgeStyle=orthogonalEdgeStyle;rounded=0;orthogonalLoop=1;jettySize=auto;html=1;" edge="1" parent="1" source="cpShksspciK1RbALdtuN-87" target="cpShksspciK1RbALdtuN-97">
          <mxGeometry relative="1" as="geometry" />
        </mxCell>
        <mxCell id="cpShksspciK1RbALdtuN-87" value="Does user have to switch orgs or can they join multiple?" style="rounded=0;whiteSpace=wrap;html=1;fillColor=#fff2cc;strokeColor=#d6b656;" vertex="1" parent="1">
          <mxGeometry x="530" y="680" width="120" height="60" as="geometry" />
        </mxCell>
        <mxCell id="cpShksspciK1RbALdtuN-93" value="" style="edgeStyle=orthogonalEdgeStyle;rounded=0;orthogonalLoop=1;jettySize=auto;html=1;" edge="1" parent="1" source="cpShksspciK1RbALdtuN-90" target="cpShksspciK1RbALdtuN-92">
          <mxGeometry relative="1" as="geometry" />
        </mxCell>
        <mxCell id="cpShksspciK1RbALdtuN-94" value="&lt;font color=&quot;#009900&quot;&gt;Yes&lt;/font&gt;" style="edgeLabel;html=1;align=center;verticalAlign=middle;resizable=0;points=[];" vertex="1" connectable="0" parent="cpShksspciK1RbALdtuN-93">
          <mxGeometry x="-0.06" y="-2" relative="1" as="geometry">
            <mxPoint as="offset" />
          </mxGeometry>
        </mxCell>
        <mxCell id="cpShksspciK1RbALdtuN-96" value="" style="edgeStyle=orthogonalEdgeStyle;rounded=0;orthogonalLoop=1;jettySize=auto;html=1;" edge="1" parent="1" source="cpShksspciK1RbALdtuN-90" target="cpShksspciK1RbALdtuN-95">
          <mxGeometry relative="1" as="geometry" />
        </mxCell>
        <mxCell id="cpShksspciK1RbALdtuN-90" value="Do you represent any other Suppliers?" style="shape=parallelogram;perimeter=parallelogramPerimeter;whiteSpace=wrap;html=1;fixedSize=1;rounded=0;" vertex="1" parent="1">
          <mxGeometry x="930" y="710" width="140" height="70" as="geometry" />
        </mxCell>
        <mxCell id="cpShksspciK1RbALdtuN-92" value="Send message to Planner hero team so we can reach out to them." style="whiteSpace=wrap;html=1;rounded=0;" vertex="1" parent="1">
          <mxGeometry x="1160" y="715" width="120" height="65" as="geometry" />
        </mxCell>
        <mxCell id="cpShksspciK1RbALdtuN-95" value="View RFP details" style="whiteSpace=wrap;html=1;rounded=0;fillColor=#d5e8d4;strokeColor=#82b366;" vertex="1" parent="1">
          <mxGeometry x="940" y="865" width="120" height="60" as="geometry" />
        </mxCell>
        <mxCell id="cpShksspciK1RbALdtuN-97" value="View RFP details" style="whiteSpace=wrap;html=1;rounded=0;fillColor=#d5e8d4;strokeColor=#82b366;" vertex="1" parent="1">
          <mxGeometry x="530" y="820" width="120" height="60" as="geometry" />
        </mxCell>
      </root>
    </mxGraphModel>
  </diagram>
</mxfile>
